<svg xmlns="http://www.w3.org/2000/svg" width="18" height="18" fill="currentColor" viewBox="0 0 18 18">
  <g clip-path="url(#a)">
    <path d="M.113.113A.9.9 0 0 1 1.318.052l.069.061 16.5 16.5.061.069a.9.9 0 0 1-1.267 1.266l-.068-.061-3.266-3.267a8.452 8.452 0 0 1-3.995 1.268l-.337.011L9 15.9c-2.985 0-5.268-1.704-6.75-3.285A15.654 15.654 0 0 1 .104 9.7a9.313 9.313 0 0 1-.146-.27l-.009-.018c0-.002-.002-.004-.003-.005v-.002C-.056 9.402-.056 9.401.75 9l-.805.402a.9.9 0 0 1 .012-.828 14.737 14.737 0 0 1 3.25-4.094L.113 1.387l-.061-.069A.9.9 0 0 1 .113.113Zm4.37 5.643A12.936 12.936 0 0 0 1.78 9.002a13.854 13.854 0 0 0 1.781 2.383c1.248 1.33 2.944 2.552 5.018 2.7l.42.014a6.652 6.652 0 0 0 3.031-.794l-1.518-1.519a3.152 3.152 0 0 1-3.796-.503 3.15 3.15 0 0 1-.504-3.797l-1.73-1.73ZM9 2.099c2.984 0 5.267 1.705 6.749 3.286A15.658 15.658 0 0 1 17.895 8.3a9.564 9.564 0 0 1 .147.27l.009.018c0 .002.002.003.003.005v.002L17.25 9l.805-.402a.9.9 0 0 1-.011.826 14.779 14.779 0 0 1-1.726 2.548.9.9 0 1 1-1.377-1.159c.478-.567.903-1.175 1.277-1.815a13.85 13.85 0 0 0-1.78-2.383C13.106 5.195 11.264 3.9 9 3.9h-.002c-.46 0-.92.052-1.368.156a.9.9 0 0 1-.41-1.752l.44-.09A7.74 7.74 0 0 1 9 2.099ZM7.606 8.88a1.35 1.35 0 0 0 1.513 1.513L7.606 8.88Z"/>
  </g>
  <defs>
    <clipPath id="a">
      <path d="M0 0h18v18H0z"/>
    </clipPath>
  </defs>
</svg>
