<svg xmlns="http://www.w3.org/2000/svg" width="20" height="20" fill="currentColor" viewBox="0 0 20 20">
  <g clip-path="url(#a)">
    <path d="M10 2.433c3.276 0 5.789 1.871 7.427 3.618a17.312 17.312 0 0 1 2.37 3.222 10.534 10.534 0 0 1 .16.297l.01.018.004.008v.001c-.004.002-.057.03-.805.404l.805.402-.014.028-.034.065c-.03.055-.072.134-.127.232a17.314 17.314 0 0 1-2.37 3.22c-1.637 1.748-4.15 3.619-7.426 3.619s-5.79-1.87-7.428-3.618a17.304 17.304 0 0 1-2.369-3.221 10.134 10.134 0 0 1-.127-.232l-.034-.065-.013-.027v-.001a.9.9 0 0 1 0-.805L.833 10 .03 9.598l.003-.009.01-.018a6.432 6.432 0 0 1 .161-.297 17.305 17.305 0 0 1 2.37-3.222C4.21 4.304 6.723 2.433 10 2.433Zm0 1.8c-2.557 0-4.627 1.464-6.114 3.05A15.5 15.5 0 0 0 1.862 10a15.5 15.5 0 0 0 2.024 2.719c1.487 1.585 3.557 3.048 6.114 3.048s4.628-1.463 6.114-3.049A15.492 15.492 0 0 0 18.137 10a15.493 15.493 0 0 0-2.022-2.717C14.627 5.697 12.556 4.234 10 4.233Zm1.6 5.768a1.6 1.6 0 1 0-3.201 0 1.6 1.6 0 0 0 3.2 0Zm8.372-.403a.9.9 0 0 1 0 .805L19.166 10l.806-.403ZM13.4 10a3.4 3.4 0 1 1-6.8 0 3.4 3.4 0 0 1 6.8 0Z"/>
  </g>
  <defs>
    <clipPath id="a">
      <path d="M0 0h20v20H0z"/>
    </clipPath>
  </defs>
</svg>
