<svg xmlns="http://www.w3.org/2000/svg" width="16" height="16" fill="currentColor" viewBox="0 0 16 16">
  <path d="M14.317 5.667a3.019 3.019 0 0 0-.684-1.915l-.2-.22a3.019 3.019 0 0 0-1.837-.868l-.296-.015a3.019 3.019 0 0 0-1.914.684l-.22.2-.707.707a.65.65 0 0 1-.919 0l-.707-.707A3.017 3.017 0 1 0 2.566 7.8L8 13.234 13.434 7.8l.199-.22a3.02 3.02 0 0 0 .684-1.913Zm1.3 0A4.317 4.317 0 0 1 14.5 8.566l-.147.153-5.893 5.894a.65.65 0 0 1-.919 0L1.646 8.719a4.318 4.318 0 1 1 6.107-6.105l.246.246.248-.246.153-.147a4.317 4.317 0 0 1 2.9-1.119l.212.006a4.316 4.316 0 0 1 2.84 1.26l.147.153a4.319 4.319 0 0 1 1.118 2.9Z"/>
</svg>
