<svg width="20" height="20" viewBox="0 0 20 20" fill="none" xmlns="http://www.w3.org/2000/svg">
<path d="M10 14.2969C10.9766 14.2969 11.8068 13.9552 12.4906 13.2719C13.174 12.588 13.5156 11.7578 13.5156 10.7812C13.5156 9.80469 13.174 8.97448 12.4906 8.29063C11.8068 7.60729 10.9766 7.26562 10 7.26562C9.02344 7.26562 8.19323 7.60729 7.50938 8.29063C6.82604 8.97448 6.48438 9.80469 6.48438 10.7812C6.48438 11.7578 6.82604 12.588 7.50938 13.2719C8.19323 13.9552 9.02344 14.2969 10 14.2969ZM3.75 17.0312C3.32031 17.0312 2.9526 16.8784 2.64688 16.5727C2.34063 16.2664 2.1875 15.8984 2.1875 15.4688V6.09375C2.1875 5.66406 2.34063 5.29635 2.64688 4.99062C2.9526 4.68437 3.32031 4.53125 3.75 4.53125H6.21094L7.65625 2.96875H12.3438L13.7891 4.53125H16.25C16.6797 4.53125 17.0477 4.68437 17.3539 4.99062C17.6596 5.29635 17.8125 5.66406 17.8125 6.09375V15.4688C17.8125 15.8984 17.6596 16.2664 17.3539 16.5727C17.0477 16.8784 16.6797 17.0312 16.25 17.0312H3.75Z" fill="#050505" fill-opacity="0.2"/>
</svg>
