<svg xmlns="http://www.w3.org/2000/svg" width="16" height="16" fill="currentColor" viewBox="0 0 16 16">
  <path d="m14 3.35.13.013a.65.65 0 0 1 0 1.274L14 4.65h-.725l-.427 6.406c-.035.515-.062.94-.113 1.285a2.862 2.862 0 0 1-.244.858l-.06.113a2.65 2.65 0 0 1-.97.979l-.177.094c-.309.15-.634.21-.988.238-.347.028-.773.027-1.29.027H6.994c-.517 0-.943 0-1.29-.027a2.859 2.859 0 0 1-.872-.186l-.116-.052a2.652 2.652 0 0 1-1.042-.904l-.106-.17c-.17-.298-.252-.618-.303-.97a9.271 9.271 0 0 1-.063-.578l-.05-.707-.427-6.406H2a.65.65 0 0 1 0-1.3h12Zm-9.55 7.62.048.686c.016.194.033.356.054.496.04.274.089.415.146.516l.054.087c.133.197.315.356.53.46l.087.036c.098.034.232.06.439.076.283.023.649.023 1.186.023h2.012c.537 0 .903 0 1.186-.023.276-.022.421-.062.526-.112l.09-.048a1.35 1.35 0 0 0 .494-.499l.042-.084c.04-.095.074-.227.104-.432.042-.281.067-.646.103-1.182l.422-6.32H4.027l.422 6.32ZM10 1.35l.13.013a.65.65 0 0 1 0 1.274L10 2.65H6a.65.65 0 0 1 0-1.3h4Z"/>
</svg>
