<svg width="26" height="22" viewBox="0 0 26 22" fill="none" xmlns="http://www.w3.org/2000/svg">
<path d="M1.2 9V4.272H0.048V2.916H1.716L1.2 3.384V2.508C1.2 1.716 1.404 1.12 1.812 0.719999C2.228 0.32 2.848 0.12 3.672 0.12C3.856 0.12 4.052 0.132 4.26 0.155999C4.476 0.18 4.664 0.228 4.824 0.3V1.692C4.712 1.652 4.584 1.624 4.44 1.608C4.296 1.584 4.156 1.572 4.02 1.572C3.836 1.572 3.664 1.604 3.504 1.668C3.352 1.732 3.228 1.84 3.132 1.992C3.044 2.136 3 2.332 3 2.58V3.216L2.748 2.916H4.536V4.272H3.012V9H1.2ZM7.87228 9.132C7.22428 9.132 6.66028 9.004 6.18028 8.748C5.70828 8.484 5.34028 8.116 5.07628 7.644C4.82028 7.172 4.69228 6.608 4.69228 5.952C4.69228 5.304 4.82028 4.744 5.07628 4.272C5.34028 3.8 5.70828 3.436 6.18028 3.18C6.66028 2.924 7.22428 2.796 7.87228 2.796C8.52028 2.796 9.08428 2.924 9.56428 3.18C10.0443 3.436 10.4123 3.8 10.6683 4.272C10.9323 4.744 11.0643 5.304 11.0643 5.952C11.0643 6.608 10.9323 7.172 10.6683 7.644C10.4123 8.116 10.0443 8.484 9.56428 8.748C9.08428 9.004 8.52028 9.132 7.87228 9.132ZM7.87228 7.764C8.28828 7.764 8.61628 7.616 8.85628 7.32C9.10428 7.024 9.22828 6.568 9.22828 5.952C9.22828 5.336 9.10428 4.884 8.85628 4.596C8.61628 4.308 8.28828 4.164 7.87228 4.164C7.45628 4.164 7.12428 4.308 6.87628 4.596C6.63628 4.884 6.51628 5.336 6.51628 5.952C6.51628 6.568 6.63628 7.024 6.87628 7.32C7.12428 7.616 7.45628 7.764 7.87228 7.764ZM14.8745 9.132C14.2265 9.132 13.6625 9.004 13.1825 8.748C12.7105 8.484 12.3425 8.116 12.0785 7.644C11.8225 7.172 11.6945 6.608 11.6945 5.952C11.6945 5.304 11.8225 4.744 12.0785 4.272C12.3425 3.8 12.7105 3.436 13.1825 3.18C13.6625 2.924 14.2265 2.796 14.8745 2.796C15.5225 2.796 16.0865 2.924 16.5665 3.18C17.0465 3.436 17.4145 3.8 17.6705 4.272C17.9345 4.744 18.0665 5.304 18.0665 5.952C18.0665 6.608 17.9345 7.172 17.6705 7.644C17.4145 8.116 17.0465 8.484 16.5665 8.748C16.0865 9.004 15.5225 9.132 14.8745 9.132ZM14.8745 7.764C15.2905 7.764 15.6185 7.616 15.8585 7.32C16.1065 7.024 16.2305 6.568 16.2305 5.952C16.2305 5.336 16.1065 4.884 15.8585 4.596C15.6185 4.308 15.2905 4.164 14.8745 4.164C14.4585 4.164 14.1265 4.308 13.8785 4.596C13.6385 4.884 13.5185 5.336 13.5185 5.952C13.5185 6.568 13.6385 7.024 13.8785 7.32C14.1265 7.616 14.4585 7.764 14.8745 7.764ZM21.3847 9.132C20.8567 9.132 20.3887 9.004 19.9807 8.748C19.5807 8.492 19.2647 8.128 19.0327 7.656C18.8087 7.184 18.6967 6.616 18.6967 5.952C18.6967 5.296 18.8087 4.732 19.0327 4.26C19.2567 3.788 19.5727 3.428 19.9807 3.18C20.3887 2.924 20.8567 2.796 21.3847 2.796C21.8647 2.796 22.2927 2.912 22.6687 3.144C23.0527 3.368 23.3087 3.672 23.4367 4.056H23.2807V0.167999H25.0927V9H23.3047V7.812H23.4607C23.3327 8.212 23.0767 8.532 22.6927 8.772C22.3087 9.012 21.8727 9.132 21.3847 9.132ZM21.9247 7.764C22.3407 7.764 22.6767 7.616 22.9327 7.32C23.1887 7.024 23.3167 6.568 23.3167 5.952C23.3167 5.336 23.1887 4.884 22.9327 4.596C22.6767 4.308 22.3407 4.164 21.9247 4.164C21.5087 4.164 21.1687 4.308 20.9047 4.596C20.6487 4.884 20.5207 5.336 20.5207 5.952C20.5207 6.568 20.6487 7.024 20.9047 7.32C21.1687 7.616 21.5087 7.764 21.9247 7.764ZM0.744 21V14.916H2.556V21H0.744ZM0.672 13.92V12.228H2.616V13.92H0.672ZM6.85697 21.132C5.80097 21.132 4.97697 20.848 4.38497 20.28C3.79297 19.712 3.49697 18.94 3.49697 17.964C3.49697 17.332 3.62097 16.78 3.86897 16.308C4.12497 15.836 4.47697 15.468 4.92497 15.204C5.38097 14.932 5.91297 14.796 6.52097 14.796C7.12097 14.796 7.62097 14.924 8.02097 15.18C8.42897 15.436 8.73297 15.796 8.93297 16.26C9.14097 16.716 9.24497 17.248 9.24497 17.856V18.276H4.98497V17.376H7.92497L7.72097 17.544C7.72097 17.04 7.61697 16.66 7.40897 16.404C7.20897 16.14 6.91697 16.008 6.53297 16.008C6.10897 16.008 5.78097 16.164 5.54897 16.476C5.32497 16.788 5.21297 17.236 5.21297 17.82V18.012C5.21297 18.604 5.35697 19.044 5.64497 19.332C5.94097 19.62 6.36497 19.764 6.91697 19.764C7.24497 19.764 7.55297 19.724 7.84097 19.644C8.13697 19.556 8.41697 19.42 8.68097 19.236L9.18497 20.436C8.88097 20.66 8.52897 20.832 8.12897 20.952C7.73697 21.072 7.31297 21.132 6.85697 21.132ZM12.3986 21.132C11.8546 21.132 11.3586 21.072 10.9106 20.952C10.4626 20.832 10.0826 20.664 9.77063 20.448L10.2386 19.248C10.5506 19.44 10.8946 19.592 11.2706 19.704C11.6546 19.816 12.0346 19.872 12.4106 19.872C12.7626 19.872 13.0226 19.816 13.1906 19.704C13.3586 19.592 13.4426 19.44 13.4426 19.248C13.4426 19.088 13.3866 18.964 13.2746 18.876C13.1706 18.788 13.0066 18.724 12.7826 18.684L11.5466 18.456C11.0266 18.352 10.6306 18.16 10.3586 17.88C10.0866 17.6 9.95063 17.236 9.95063 16.788C9.95063 16.396 10.0546 16.052 10.2626 15.756C10.4786 15.452 10.7866 15.216 11.1866 15.048C11.5866 14.88 12.0546 14.796 12.5906 14.796C13.0466 14.796 13.4786 14.852 13.8866 14.964C14.2946 15.076 14.6426 15.248 14.9306 15.48L14.4386 16.644C14.1906 16.46 13.9026 16.312 13.5746 16.2C13.2546 16.088 12.9466 16.032 12.6506 16.032C12.2666 16.032 11.9906 16.096 11.8226 16.224C11.6546 16.344 11.5706 16.5 11.5706 16.692C11.5706 16.836 11.6186 16.956 11.7146 17.052C11.8186 17.148 11.9746 17.22 12.1826 17.268L13.4306 17.496C13.9666 17.592 14.3746 17.772 14.6546 18.036C14.9346 18.3 15.0746 18.664 15.0746 19.128C15.0746 19.552 14.9626 19.912 14.7386 20.208C14.5146 20.504 14.1986 20.732 13.7906 20.892C13.3906 21.052 12.9266 21.132 12.3986 21.132Z" fill="white"/>
</svg>
